<svg xmlns="http://www.w3.org/2000/svg" width="370" height="92" viewBox="0 0 370 92"><defs><linearGradient id="coin" x2=".8" y2="1"><stop stop-color="#edcd80"/><stop offset=".5" stop-color="#bd934c"/><stop offset="1" stop-color="#886137"/></linearGradient><linearGradient id="scale" x2="1" y2="1"><stop stop-color="#8ea997"/><stop offset=".5" stop-color="#547d71"/><stop offset="1" stop-color="#264b4e"/></linearGradient></defs><path fill="#151314" stroke="#51343c" d="M12 .5H369.5V79L357 91.5H.5V13Z"/><path fill="#301c22" d="M12 1h346v3H9Z"/><path stroke="#3a2b30" d="M18 32h332M18 56h332M180 62v22"/><path stroke="#873440" d="M.5 30v40M369 22v40"/><g transform="translate(-30 18)" stroke="#785e3c" stroke-width=".8"><path fill="#94703c" d="M48 53v4c0 4 20 4 20 0v-4z"/><ellipse cx="58" cy="53" rx="10" ry="4" fill="url(#coin)"/><path d="M51 56v3m4-2v3m5-3v3m5-4v3"/><ellipse cx="58" cy="48" rx="7.5" ry="8.5" transform="rotate(-28 58 48)" fill="url(#coin)"/><ellipse cx="58" cy="48" rx="5.2" ry="6.2" transform="rotate(-28 58 48)" fill="none" stroke="#f1d395"/><path d="m57 44 3 4-1 4-3-4z" fill="#8e6839"/></g><g transform="translate(22 20)" stroke-linejoin="round"><path d="M181 39c-8 4-11 10-11 17 7 5 14 3 20-2-5-3-8-8-9-15Z" fill="url(#scale)" stroke="#a39468"/><path d="m181 42-6 12 11 1m-11-1 6-6m-6 6-3 2" fill="none" stroke="#a9b8a0" stroke-width=".8"/><path d="m178 58 5-1 4-2" fill="none" stroke="#365b56"/></g></svg>
